<svg id="f6ced1ba-4e34-4ebf-b5e9-6d2718aa2cd2" data-name="Warstwa 1" xmlns="http://www.w3.org/2000/svg" viewBox="0 0 249.19 224.83"><defs><style>.b92f913b-8888-4661-a809-b419415a9e22{fill:#009245;}.a8aee704-0a6c-4ca0-8ac7-77141f89a3d1{fill:#00bd45;}</style></defs><path class="b92f913b-8888-4661-a809-b419415a9e22" d="M215.71,80.91c-.25.11-.9-.57-1.89-2-.5-.69-1.08-1.56-1.75-2.6l-1-1.67c-.39-.59-.86-1.19-1.31-1.84l-3-4.33c-1.15-1.55-2.5-3.15-3.88-4.92s-3-3.51-4.71-5.41-3.63-3.75-5.63-5.71L190.92,51c-.52-.5-1.09-.95-1.65-1.43l-3.42-2.92c-1.13-1-2.45-1.89-3.71-2.86s-2.55-1.94-3.9-2.88L174,38.16c-.71-.45-1.42-.94-2.16-1.38l-2.28-1.27c-1.54-.84-3.06-1.75-4.66-2.57L160,30.6c-1.64-.84-3.41-1.45-5.16-2.16s-3.5-1.46-5.36-2l-5.56-1.77-5.78-1.4a109.36,109.36,0,0,0-24.51-2.53A109.38,109.38,0,0,0,89.24,24.3l-5.72,1.64-5.48,2c-1.84.6-3.55,1.46-5.28,2.21s-3.46,1.46-5.06,2.37l-4.84,2.54c-1.56.89-3,1.86-4.55,2.77l-2.23,1.36c-.72.46-1.4,1-2.1,1.47l-4.1,2.9c-1.31,1-2.54,2-3.78,3s-2.5,1.93-3.58,3l-3.3,3.06c-.54.51-1.09,1-1.59,1.49l-1.46,1.55c-1.92,2-3.84,3.94-5.39,5.95s-3.24,3.73-4.49,5.6-2.59,3.48-3.67,5.08l-2.85,4.44c-.43.67-.87,1.29-1.23,1.9l-1,1.72c-.62,1.06-1.17,1.95-1.63,2.67-.94,1.42-1.56,2.13-1.81,2s-.14-1,.33-2.68c.23-.83.56-1.85,1-3l.67-1.92c.27-.68.61-1.37.94-2.12q1-2.23,2.33-5c.93-1.77,2.08-3.61,3.25-5.64s2.67-4,4.18-6.22A83,83,0,0,1,32,51.9l1.44-1.72c.5-.57,1-1.1,1.58-1.66l3.3-3.42c1.09-1.19,2.38-2.23,3.62-3.36s2.51-2.28,3.86-3.39L50,35.1c.72-.54,1.43-1.12,2.18-1.64l2.3-1.53c1.56-1,3.11-2.1,4.75-3.09L64.29,26c1.69-1,3.53-1.79,5.34-2.67s3.65-1.79,5.59-2.47l5.84-2.25,6.11-1.85a111.58,111.58,0,0,1,26.28-4,111.3,111.3,0,0,1,26.42,2.89l6.18,1.59,5.93,2c2,.61,3.82,1.48,5.68,2.24s3.72,1.5,5.45,2.45l5.19,2.64c1.67.93,3.27,1.94,4.87,2.89l2.37,1.43c.77.5,1.5,1,2.24,1.55l4.34,3.07c1.39,1.05,2.69,2.17,4,3.23s2.61,2.06,3.75,3.21l3.44,3.27c.56.55,1.13,1.05,1.65,1.6l1.51,1.67A82.82,82.82,0,0,1,202,54.88c1.6,2.12,3.22,4,4.43,6s2.49,3.77,3.48,5.5,1.79,3.39,2.54,4.85c.36.73.74,1.41,1,2.08l.76,1.89c.45,1.18.82,2.19,1.09,3C215.8,79.89,216,80.79,215.71,80.91Z" transform="translate(-4.46 -12.19)"/><path class="b92f913b-8888-4661-a809-b419415a9e22" d="M252.5,12.19c.53,0,1.1,2.2,1.14,6.23a73.86,73.86,0,0,1-2.17,16.79c-.78,3.47-1.77,7.22-2.87,11.18s-2.18,8.2-3.37,12.66c-2.41,8.9-5.16,18.65-8.17,28.85-1.45,5.08-2.81,10.35-5.1,15.32a40.53,40.53,0,0,1-1.88,3.65,15.75,15.75,0,0,1-2.91,3.82,9.09,9.09,0,0,1-2.53,1.69,7.94,7.94,0,0,1-3.24.7,10.51,10.51,0,0,1-5.14-1.49c-.64-.36-1.21-.73-1.73-1.09l-1.44-1c-1-.67-1.87-1.39-2.77-2.1-1.79-1.41-3.46-2.87-5-4.31a80.82,80.82,0,0,1-8-8.71,67.11,67.11,0,0,1-8.89-14.49c-1.58-3.69-2-5.9-1.53-6.13s1.88,1.48,4.22,4.56a131.28,131.28,0,0,0,10.45,12.33,96.53,96.53,0,0,0,8.15,7.44c1.54,1.23,3.16,2.48,4.88,3.69.86.59,1.73,1.21,2.64,1.79l1.36.88c.44.27.84.5,1.22.69a3.34,3.34,0,0,0,1.53.47.43.43,0,0,0,.21-.09,1.7,1.7,0,0,0,.43-.35,20.24,20.24,0,0,0,2.87-5.1c1.85-4.22,3.08-9.09,4.55-14.26,3-10.27,6-20,8.83-28.86,1.42-4.41,2.75-8.62,4.09-12.51S244.92,37,246,33.69c2.23-6.53,3.64-11.86,4.52-15.61S251.92,12.18,252.5,12.19Z" transform="translate(-4.46 -12.19)"/><path class="b92f913b-8888-4661-a809-b419415a9e22" d="M39.24,155.94c.56-.2,2.15,3.05,5.15,8.76,1.51,2.84,3.41,6.29,5.77,10.17a145.49,145.49,0,0,0,8.72,12.67,114.69,114.69,0,0,0,28.9,26.85,88.62,88.62,0,0,0,20.84,9.82,70.9,70.9,0,0,0,48.09-1.61,84.49,84.49,0,0,0,10.66-5,90.82,90.82,0,0,0,9.6-6.06,111.69,111.69,0,0,0,15.89-13.88,131.61,131.61,0,0,0,11.74-14.35,163.15,163.15,0,0,0,13.61-23.4c2.79-5.81,4.27-9.12,4.84-8.94s0,3.79-2,10.09a114.15,114.15,0,0,1-11.78,25.37,120.29,120.29,0,0,1-11.55,15.69,110.33,110.33,0,0,1-16.44,15.36,92.67,92.67,0,0,1-10.21,6.77,86.38,86.38,0,0,1-11.55,5.62,76.33,76.33,0,0,1-53.35,1.79,91.92,91.92,0,0,1-22.48-11.13A110.4,110.4,0,0,1,54.3,190.86,118.78,118.78,0,0,1,46.24,177,105.25,105.25,0,0,1,41.54,166C39.35,159.72,38.76,156.1,39.24,155.94Z" transform="translate(-4.46 -12.19)"/><path class="b92f913b-8888-4661-a809-b419415a9e22" d="M5.69,237c-.53,0-1.09-2.45-1.21-6.93a102,102,0,0,1,1.63-18.8c.63-3.92,1.48-8.17,2.43-12.69s1.87-9.34,2.94-14.41c2.1-10.13,4.52-21.25,7.17-32.89,1.38-5.78,2.42-11.57,4.12-17.24a63.57,63.57,0,0,1,3-8.28,17.34,17.34,0,0,1,2.73-4.4,7.27,7.27,0,0,1,6.72-2.56,7.94,7.94,0,0,1,1.77.51c.28.12.56.25.83.39s.42.24.62.37a15.94,15.94,0,0,1,2,1.45c1.06.94,2,1.79,2.9,2.69,1.82,1.8,3.54,3.6,5.07,5.43a85.57,85.57,0,0,1,7.82,10.69,82,82,0,0,1,8.15,17.15c1.37,4.26,1.69,6.74,1.19,6.92s-1.83-1.89-4-5.64a156,156,0,0,0-10-15.23,101.91,101.91,0,0,0-8.06-9.43c-1.53-1.61-3.21-3.17-5-4.74-.87-.75-1.83-1.57-2.69-2.27a10.69,10.69,0,0,0-1.14-.78l-.21-.11h-.12a.28.28,0,0,0-.22.15,11.22,11.22,0,0,0-1.36,2.51,60.48,60.48,0,0,0-2.5,7.36c-1.45,5.17-2.43,10.91-3.83,16.76-2.66,11.69-5.31,22.81-7.81,32.89-1.27,5-2.43,9.85-3.68,14.28s-2.37,8.55-3.34,12.3c-2,7.5-3.25,13.62-4.05,17.89S6.27,237,5.69,237Z" transform="translate(-4.46 -12.19)"/><path class="a8aee704-0a6c-4ca0-8ac7-77141f89a3d1" d="M128.08,146.81c-.59,0-1-2.26-2-6.08a48.13,48.13,0,0,0-6.81-14.88A39.51,39.51,0,0,0,101,111.31a38.35,38.35,0,0,0-6.54-1.92c-1.13-.26-2.29-.4-3.46-.56l-.89-.09-.43,0h-.06l-.06,0c-.11.06,0,.11,0,.11h0l1.22.85a58.42,58.42,0,0,1,6.91,5.6,59.76,59.76,0,0,1,10.48,13.08A56.27,56.27,0,0,1,116,155.25a54.74,54.74,0,0,1-.7,10.68,46.36,46.36,0,0,1-2,7.77c-1.51,4.13-3,6.13-3.42,6s-.13-2.55.39-6.68c.27-2.06.47-4.58.58-7.48a63.54,63.54,0,0,0-.49-9.81,59.18,59.18,0,0,0-2.61-11.46A54.83,54.83,0,0,0,92.41,121a52.72,52.72,0,0,0-6.1-4.81l-.82-.56-1.74-1-1.77-1a13.36,13.36,0,0,0-2-1l-4.69-2.07c-.69-.33-1.84-.72-2.8-1.09l-3-1.12-8.16-3,11.22-2.67a61.16,61.16,0,0,1,6-1.25l1.61-.26,1.78-.13a26.86,26.86,0,0,1,3.64-.15l3.8.12c.33,0,.61.07.92.1l.54.06,1,.13c1.4.23,2.78.45,4.12.8a43.2,43.2,0,0,1,7.67,2.58,41.57,41.57,0,0,1,6.75,3.68,40.61,40.61,0,0,1,5.65,4.53,42.61,42.61,0,0,1,11.74,19.79,34.36,34.36,0,0,1,1.19,7.69C129.25,144.54,128.57,146.82,128.08,146.81Z" transform="translate(-4.46 -12.19)"/><path class="a8aee704-0a6c-4ca0-8ac7-77141f89a3d1" d="M128.35,147c-.49,0-1.15-2.17-1.09-6.25a35.79,35.79,0,0,1,.93-7.39,43.13,43.13,0,0,1,10.26-19.56,39.63,39.63,0,0,1,5.16-4.69,43.38,43.38,0,0,1,6.32-3.92,41.29,41.29,0,0,1,7.34-2.8l2-.5,2-.39c.33-.08.68-.11,1-.16l1.22-.15c1.21-.17,2.42-.13,3.63-.18l1.84,0c.57,0,1.12.09,1.69.13a29.05,29.05,0,0,1,3.29.36c1,.18,2.09.32,3,.55l2.79.7,10.72,2.75-10.14,4.08-1.44.57-.69.29-.56.26-2.25,1.06-2.24,1.06-.56.27-.43.26-.83.53-3.19,2L166.61,117a55,55,0,0,0-5.63,5,54.3,54.3,0,0,0-4.74,5.52c-.75.93-1.37,1.93-2.05,2.88s-1.26,2-1.79,3A60.12,60.12,0,0,0,145,156.47a74.2,74.2,0,0,0-.42,9.55c.09,2.83.28,5.28.5,7.29.44,4,.77,6.32.21,6.51s-1.83-1.8-3.25-5.82a48,48,0,0,1-1.91-7.54,57.39,57.39,0,0,1-.77-10.33,59.1,59.1,0,0,1,6.54-26.34c.56-1.17,1.27-2.28,1.91-3.44s1.41-2.28,2.23-3.38a57.42,57.42,0,0,1,5.27-6.45,58.74,58.74,0,0,1,6.41-5.84l1.77-1.34.35-.25L164,109h0c.06,0,.15,0,0-.11a.1.1,0,0,0-.07,0h0l-.21,0-.42,0c-.28,0-.56,0-.84.1l-1.65.27-1.62.36a36.67,36.67,0,0,0-6.12,2.06,37.79,37.79,0,0,0-16.68,14.86,51.77,51.77,0,0,0-6.1,14.54C129.31,144.82,128.93,147,128.35,147Z" transform="translate(-4.46 -12.19)"/><path class="a8aee704-0a6c-4ca0-8ac7-77141f89a3d1" d="M128.77,115.52c-1.15.36-3.46-5-8.69-12.51a82.33,82.33,0,0,0-10.31-12,72.08,72.08,0,0,0-7.11-5.94c-1.26-1-2.66-1.85-4-2.78s-2.84-1.75-4.35-2.52-3-1.47-4.4-2.19l4.42-6.44a109.52,109.52,0,0,1,12.24,14.57,53.11,53.11,0,0,1,7,14.08,31.44,31.44,0,0,1,1.54,10.41c-.12,2.48-.63,3.81-1.12,3.82-1.13,0-1.82-5.07-5.42-12.24a67.38,67.38,0,0,0-7.71-11.85A163.52,163.52,0,0,0,88.64,76.72L72.51,60.62l20.56,9.67c1.66.77,3.37,1.5,5,2.43s3.3,1.9,4.88,2.89,3.06,2.07,4.45,3.22a65.44,65.44,0,0,1,7.62,7A62.77,62.77,0,0,1,125,100.12a45.53,45.53,0,0,1,3.91,11C129.35,113.8,129.28,115.36,128.77,115.52Z" transform="translate(-4.46 -12.19)"/><path class="a8aee704-0a6c-4ca0-8ac7-77141f89a3d1" d="M125.87,109.27c-1-.2-.89-6.5,2.73-16,.45-1.18,1-2.4,1.56-3.65s1.23-2.54,2-3.85,1.55-2.62,2.37-4,1.8-2.71,2.87-4a56.38,56.38,0,0,1,7.26-7.87,52.61,52.61,0,0,1,9.45-6.82l17-9.49-11.9,15.44-.42.55a126.46,126.46,0,0,0-11.45,16.89,65.06,65.06,0,0,0-6,15.14c-2.29,8.88.05,14.69-1.11,15.15-.47.21-1.69-.94-2.89-3.66a25.14,25.14,0,0,1-1.58-12.4,54.52,54.52,0,0,1,5-17.53,97.68,97.68,0,0,1,11.7-18.47l.44-.57,5.1,5.95a51.19,51.19,0,0,0-8.18,5.71A57.79,57.79,0,0,0,143,82.44c-1,1.11-1.91,2.31-2.84,3.42s-1.73,2.26-2.47,3.41-1.52,2.21-2.17,3.31-1.3,2.12-1.88,3.14C129.05,103.88,127,109.57,125.87,109.27Z" transform="translate(-4.46 -12.19)"/></svg>